<svg width="288" height="40" viewBox="0 0 288 40" fill="none" xmlns="http://www.w3.org/2000/svg">
<path opacity="0.1" d="M31.747 31.4286H13.0892L9.52983 40H0L17.9115 0H27.0969L45.0658 40H35.3063L31.747 31.4286ZM28.8191 24.4L22.4468 9.08572L16.0744 24.4H28.8191ZM80.5803 40L72.8301 28.8571H72.3709H64.2763V40H54.9761V0H72.3709C75.9302 0 79.0111 0.590476 81.6137 1.77143C84.2545 2.95238 86.2829 4.62857 87.699 6.8C89.1151 8.97143 89.8231 11.5429 89.8231 14.5143C89.8231 17.4857 89.0959 20.0571 87.6416 22.2286C86.2255 24.3619 84.1971 26 81.5563 27.1429L90.5694 40H80.5803ZM80.4081 14.5143C80.4081 12.2667 79.6809 10.5524 78.2265 9.37143C76.7722 8.15238 74.6481 7.54286 71.8542 7.54286H64.2763V21.4857H71.8542C74.6481 21.4857 76.7722 20.8762 78.2265 19.6571C79.6809 18.4381 80.4081 16.7238 80.4081 14.5143ZM110.696 7.54286H97.8363V0H132.856V7.54286H119.996V40H110.696V7.54286ZM180.17 40L180.112 16L168.286 35.7714H164.095L152.327 16.5143V40H143.6V0H151.293L166.334 24.8571L181.146 0H188.781L188.896 40H180.17ZM230.637 31.4286H211.979L208.419 40H198.89L216.801 0H225.986L243.955 40H234.196L230.637 31.4286ZM227.709 24.4L221.336 9.08572L214.964 24.4H227.709ZM277.109 40L267.406 26.1143L257.876 40H247.199L262.068 19.6571L247.945 0H258.509L267.75 12.9714L276.821 0H286.868L272.861 19.3143L287.843 40H277.109Z" fill="white"/>
</svg>
