<svg width="526" height="40" viewBox="0 0 526 40" fill="none" xmlns="http://www.w3.org/2000/svg">
<path d="M0 0.662981H16.5001C20.4435 0.662981 23.92 1.4733 26.9294 3.09392C29.9735 4.67772 32.3257 6.92449 33.9861 9.83425C35.681 12.744 36.5285 16.1326 36.5285 20C36.5285 23.8674 35.681 27.256 33.9861 30.1657C32.3257 33.0755 29.9735 35.3407 26.9294 36.9613C23.92 38.5451 20.4435 39.337 16.5001 39.337H0V0.662981ZM16.085 31.9889C19.7171 31.9889 22.6055 30.9208 24.7502 28.7845C26.9294 26.6114 28.019 23.6832 28.019 20C28.019 16.3168 26.9294 13.407 24.7502 11.2707C22.6055 9.0976 19.7171 8.01105 16.085 8.01105H8.40571V31.9889H16.085Z" fill="#363636"/>
<path d="M48.0564 0.662981H56.4621V39.337H48.0564V0.662981Z" fill="#363636"/>
<path d="M94.8132 19.3923H102.492V35.0829C100.521 36.6667 98.2377 37.8821 95.6434 38.7293C93.049 39.5764 90.4374 40 87.8084 40C84.038 40 80.648 39.1529 77.6385 37.4586C74.6291 35.7274 72.2596 33.3517 70.53 30.3315C68.835 27.2744 67.9875 23.8306 67.9875 20C67.9875 16.1694 68.835 12.744 70.53 9.72376C72.2596 6.66667 74.6464 4.29098 77.6904 2.59668C80.7345 0.865561 84.159 0 87.9641 0C91.1465 0 94.0349 0.570902 96.6292 1.7127C99.2236 2.85451 101.403 4.51197 103.167 6.68508L97.7707 11.9889C95.1764 9.07919 92.0459 7.62431 88.3792 7.62431C86.0615 7.62431 84.0034 8.13996 82.2046 9.17127C80.4059 10.2026 79.0049 11.6575 78.0017 13.5359C76.9986 15.4144 76.497 17.5691 76.497 20C76.497 22.3941 76.9986 24.5304 78.0017 26.4088C79.0049 28.2873 80.3885 29.7606 82.1527 30.8287C83.9515 31.86 85.9924 32.3757 88.2754 32.3757C90.6968 32.3757 92.8761 31.8232 94.8132 30.7182V19.3923Z" fill="#363636"/>
<path d="M115.489 0.662981H123.895V39.337H115.489V0.662981Z" fill="#363636"/>
<path d="M145.227 7.9558H133.604V0.662981H165.256V7.9558H153.633V39.337H145.227V7.9558Z" fill="#363636"/>
<path d="M197.063 31.0497H180.2L176.982 39.337H168.369L184.558 0.662981H192.86L209.101 39.337H200.28L197.063 31.0497ZM194.417 24.2541L188.657 9.44751L182.898 24.2541H194.417Z" fill="#363636"/>
<path d="M218.058 0.662981H226.463V32.0442H244.676V39.337H218.058V0.662981Z" fill="#363636"/>
<path d="M298.364 31.0497H281.501L278.284 39.337H269.671L285.86 0.662981H294.161L310.402 39.337H301.581L298.364 31.0497ZM295.718 24.2541L289.959 9.44751L284.199 24.2541H295.718Z" fill="#363636"/>
<path d="M343.395 19.3923H351.074V35.0829C349.103 36.6667 346.82 37.8821 344.225 38.7293C341.631 39.5764 339.019 40 336.39 40C332.62 40 329.23 39.1529 326.22 37.4586C323.211 35.7274 320.841 33.3517 319.112 30.3315C317.417 27.2744 316.569 23.8306 316.569 20C316.569 16.1694 317.417 12.744 319.112 9.72376C320.841 6.66667 323.228 4.29098 326.272 2.59668C329.316 0.865561 332.741 0 336.546 0C339.728 0 342.617 0.570902 345.211 1.7127C347.805 2.85451 349.985 4.51197 351.749 6.68508L346.353 11.9889C343.758 9.07919 340.628 7.62431 336.961 7.62431C334.643 7.62431 332.585 8.13996 330.786 9.17127C328.988 10.2026 327.587 11.6575 326.584 13.5359C325.58 15.4144 325.079 17.5691 325.079 20C325.079 22.3941 325.58 24.5304 326.584 26.4088C327.587 28.2873 328.97 29.7606 330.735 30.8287C332.533 31.86 334.574 32.3757 336.857 32.3757C339.279 32.3757 341.458 31.8232 343.395 30.7182V19.3923Z" fill="#363636"/>
<path d="M392.194 32.1547V39.337H364.071V0.662981H391.52V7.8453H372.425V16.2431H389.288V23.2044H372.425V32.1547H392.194Z" fill="#363636"/>
<path d="M437.382 0.662981V39.337H430.482L412.373 15.8564V39.337H404.071V0.662981H411.024L429.081 24.1436V0.662981H437.382Z" fill="#363636"/>
<path d="M468.547 40C464.846 40 461.49 39.1529 458.481 37.4586C455.506 35.7274 453.154 33.3517 451.424 30.3315C449.729 27.2744 448.882 23.8306 448.882 20C448.882 16.1694 449.729 12.744 451.424 9.72376C453.154 6.66667 455.506 4.29098 458.481 2.59668C461.49 0.865561 464.863 0 468.599 0C471.746 0 474.583 0.589319 477.108 1.76796C479.668 2.94659 481.813 4.64088 483.542 6.85083L478.146 12.1547C475.69 9.13444 472.646 7.62431 469.014 7.62431C466.765 7.62431 464.759 8.15838 462.995 9.22652C461.231 10.2578 459.847 11.7127 458.844 13.5912C457.875 15.4696 457.391 17.6059 457.391 20C457.391 22.3941 457.875 24.5304 458.844 26.4088C459.847 28.2873 461.231 29.7606 462.995 30.8287C464.759 31.86 466.765 32.3757 469.014 32.3757C472.646 32.3757 475.69 30.8471 478.146 27.7901L483.542 33.0939C481.813 35.3407 479.668 37.0534 477.108 38.232C474.548 39.4107 471.695 40 468.547 40Z" fill="#363636"/>
<path d="M511.487 25.6354V39.337H503.081V25.5249L489.02 0.662981H497.944L507.647 17.8453L517.35 0.662981H525.6L511.487 25.6354Z" fill="#363636"/>
</svg>
