<svg width="135" height="11" viewBox="0 0 135 11" fill="none" xmlns="http://www.w3.org/2000/svg">
<path d="M0 0.168873H4.23804C5.25091 0.168873 6.14383 0.375273 6.91681 0.788075C7.69867 1.19149 8.30283 1.76379 8.7293 2.50495C9.16466 3.24612 9.38233 4.10925 9.38233 5.09434C9.38233 6.07944 9.16466 6.94257 8.7293 7.68373C8.30283 8.4249 7.69867 9.00188 6.91681 9.41468C6.14383 9.8181 5.25091 10.0198 4.23804 10.0198H0V0.168873ZM4.13143 8.14813C5.06433 8.14813 5.80621 7.87606 6.35706 7.33191C6.91681 6.77838 7.19668 6.03253 7.19668 5.09434C7.19668 4.15616 6.91681 3.41499 6.35706 2.87084C5.80621 2.31732 5.06433 2.04055 4.13143 2.04055H2.159V8.14813H4.13143Z" fill="white"/>
<path d="M12.3433 0.168873H14.5023V10.0198H12.3433V0.168873Z" fill="white"/>
<path d="M24.3527 4.93954H26.3251V8.93621C25.8187 9.33963 25.2323 9.64923 24.5659 9.86501C23.8996 10.0808 23.2288 10.1887 22.5535 10.1887C21.5851 10.1887 20.7144 9.9729 19.9414 9.54134C19.1684 9.10039 18.5598 8.49526 18.1156 7.72595C17.6802 6.94726 17.4626 6.07005 17.4626 5.09434C17.4626 4.11863 17.6802 3.24612 18.1156 2.47681C18.5598 1.69811 19.1729 1.09298 19.9547 0.66142C20.7366 0.220473 21.6162 0 22.5935 0C23.4109 0 24.1528 0.145418 24.8192 0.436255C25.4855 0.727093 26.0453 1.14928 26.4984 1.7028L25.1124 3.05379C24.446 2.31262 23.6419 1.94204 22.7001 1.94204C22.1049 1.94204 21.5762 2.07339 21.1142 2.33608C20.6522 2.59877 20.2924 2.96935 20.0347 3.44783C19.777 3.9263 19.6482 4.47514 19.6482 5.09434C19.6482 5.70416 19.777 6.24831 20.0347 6.72678C20.2924 7.20526 20.6478 7.58053 21.1009 7.8526C21.5629 8.1153 22.0871 8.24664 22.6735 8.24664C23.2954 8.24664 23.8552 8.10591 24.3527 7.82446V4.93954Z" fill="white"/>
<path d="M29.6634 0.168873H31.8224V10.0198H29.6634V0.168873Z" fill="white"/>
<path d="M37.3015 2.02648H34.3162V0.168873H42.4458V2.02648H39.4605V10.0198H37.3015V2.02648Z" fill="white"/>
<path d="M50.6155 7.9089H46.2841L45.4579 10.0198H43.2455L47.4036 0.168873H49.536L53.7074 10.0198H51.4418L50.6155 7.9089ZM49.9358 6.17794L48.4565 2.40644L46.9772 6.17794H49.9358Z" fill="white"/>
<path d="M56.008 0.168873H58.167V8.1622H62.8448V10.0198H56.008V0.168873Z" fill="white"/>
<path d="M76.6347 7.9089H72.3034L71.4771 10.0198H69.2648L73.4229 0.168873H75.5552L79.7266 10.0198H77.461L76.6347 7.9089ZM75.955 6.17794L74.4757 2.40644L72.9964 6.17794H75.955Z" fill="white"/>
<path d="M88.2008 4.93954H90.1733V8.93621C89.6668 9.33963 89.0804 9.64923 88.4141 9.86501C87.7477 10.0808 87.0769 10.1887 86.4017 10.1887C85.4332 10.1887 84.5625 9.9729 83.7895 9.54134C83.0166 9.10039 82.408 8.49526 81.9637 7.72595C81.5284 6.94726 81.3107 6.07005 81.3107 5.09434C81.3107 4.11863 81.5284 3.24612 81.9637 2.47681C82.408 1.69811 83.021 1.09298 83.8029 0.66142C84.5847 0.220473 85.4643 0 86.4416 0C87.259 0 88.0009 0.145418 88.6673 0.436255C89.3336 0.727093 89.8934 1.14928 90.3465 1.7028L88.9605 3.05379C88.2941 2.31262 87.4901 1.94204 86.5483 1.94204C85.953 1.94204 85.4243 2.07339 84.9623 2.33608C84.5003 2.59877 84.1405 2.96935 83.8828 3.44783C83.6252 3.9263 83.4963 4.47514 83.4963 5.09434C83.4963 5.70416 83.6252 6.24831 83.8828 6.72678C84.1405 7.20526 84.4959 7.58053 84.949 7.8526C85.411 8.1153 85.9352 8.24664 86.5216 8.24664C87.1435 8.24664 87.7033 8.10591 88.2008 7.82446V4.93954Z" fill="white"/>
<path d="M100.735 8.19035V10.0198H93.5115V0.168873H100.562V1.99833H95.6572V4.13739H99.9885V5.91056H95.6572V8.19035H100.735Z" fill="white"/>
<path d="M112.341 0.168873V10.0198H110.569L105.918 4.03888V10.0198H103.785V0.168873H105.571L110.209 6.1498V0.168873H112.341Z" fill="white"/>
<path d="M120.346 10.1887C119.395 10.1887 118.533 9.9729 117.761 9.54134C116.996 9.10039 116.392 8.49526 115.948 7.72595C115.513 6.94726 115.295 6.07005 115.295 5.09434C115.295 4.11863 115.513 3.24612 115.948 2.47681C116.392 1.69811 116.996 1.09298 117.761 0.66142C118.533 0.220473 119.4 0 120.359 0C121.168 0 121.896 0.15011 122.545 0.450329C123.202 0.750548 123.753 1.18211 124.198 1.74502L122.812 3.09601C122.181 2.3267 121.399 1.94204 120.466 1.94204C119.888 1.94204 119.373 2.07808 118.92 2.35015C118.467 2.61284 118.111 2.98343 117.854 3.4619C117.605 3.94037 117.481 4.48452 117.481 5.09434C117.481 5.70416 117.605 6.24831 117.854 6.72678C118.111 7.20526 118.467 7.58053 118.92 7.8526C119.373 8.1153 119.888 8.24664 120.466 8.24664C121.399 8.24664 122.181 7.8573 122.812 7.0786L124.198 8.42959C123.753 9.00188 123.202 9.43814 122.545 9.73835C121.888 10.0386 121.155 10.1887 120.346 10.1887Z" fill="white"/>
<path d="M131.375 6.52976V10.0198H129.216V6.50162L125.604 0.168873H127.897L130.389 4.5455L132.881 0.168873H135L131.375 6.52976Z" fill="white"/>
</svg>
