<svg width="135" height="19" viewBox="0 0 135 19" fill="none" xmlns="http://www.w3.org/2000/svg">
<path d="M14.8895 14.8202H6.1389L4.46955 18.862H0L8.40059 0H12.7086L21.1361 18.862H16.5589L14.8895 14.8202ZM13.5163 11.5059L10.5277 4.28438L7.53899 11.5059H13.5163ZM37.7926 18.862L34.1577 13.6076H33.9423H30.1459V18.862H25.7841V0H33.9423C35.6117 0 37.0567 0.27844 38.2773 0.835319C39.5158 1.3922 40.4672 2.18261 41.1313 3.20655C41.7955 4.23049 42.1275 5.44305 42.1275 6.84423C42.1275 8.24541 41.7865 9.45797 41.1044 10.4819C40.4402 11.4879 39.4889 12.2603 38.2503 12.7992L42.4776 18.862H37.7926ZM37.7118 6.84423C37.7118 5.78436 37.3708 4.97599 36.6887 4.41911C36.0066 3.84427 35.0104 3.55684 33.7 3.55684H30.1459V10.1316H33.7C35.0104 10.1316 36.0066 9.84419 36.6887 9.26935C37.3708 8.69451 37.7118 7.88613 37.7118 6.84423ZM51.917 3.55684H45.8858V0H62.31V3.55684H56.2788V18.862H51.917V3.55684ZM84.5006 18.862L84.4737 7.54482L78.9272 16.8681H76.9616L71.442 7.78733V18.862H67.3494V0H70.9574L78.0117 11.7214L84.9584 0H88.5394L88.5932 18.862H84.5006ZM108.17 14.8202H99.4192L97.7499 18.862H93.2803L101.681 0H105.989L114.416 18.862H109.839L108.17 14.8202ZM106.797 11.5059L103.808 4.28438L100.819 11.5059H106.797ZM129.966 18.862L125.415 12.3142L120.945 18.862H115.938L122.911 9.26935L116.288 0H121.242L125.576 6.11669L129.83 0H134.543L127.973 9.10768L135 18.862H129.966Z" fill="white"/>
</svg>
